<svg width="864" height="343" viewBox="0 0 864 343" fill="none" xmlns="http://www.w3.org/2000/svg">
<path d="M362.556 18.5907C362.863 18.9005 363.555 19.1329 364.632 19.2879C365.708 19.2879 366.631 19.6752 367.4 20.4498C368.322 21.2244 369.629 23.7806 371.321 28.1184C373.166 32.4563 374.089 36.0969 374.089 39.0405C374.089 41.8291 373.704 44.8501 372.936 48.1034C372.32 51.2019 371.244 52.7511 369.706 52.7511C367.092 52.7511 364.939 49.7301 363.248 43.6882C361.556 37.4912 360.326 33.6182 359.557 32.069C355.252 22.9285 350.638 16.2669 345.718 12.084C341.258 7.90105 336.722 5.80959 332.109 5.80959C330.11 5.80959 328.111 6.1969 326.112 6.97151C316.27 11.1544 311.35 20.9145 311.35 36.2519C311.35 41.2094 312.272 47.0964 314.117 53.913C315.963 60.5747 318.808 66.4618 322.652 71.5742C323.421 72.5037 327.496 73.2784 334.877 73.898C338.721 74.3628 340.951 75.7571 341.566 78.081C342.181 80.2499 341.258 81.954 338.798 83.1934C337.414 84.8975 332.109 84.4328 322.883 81.7991C320.422 81.1794 318.808 80.7921 318.039 80.6372C309.735 80.7921 300.355 82.6512 289.898 86.2144C279.442 89.7776 269.831 95.2774 261.066 102.714C252.301 109.995 247.918 118.051 247.918 126.882C247.918 133.543 250.609 138.888 255.991 142.916C261.373 147.099 269.985 149.19 281.825 149.19C293.819 149.19 307.121 147.331 321.729 143.613C336.491 139.895 348.024 135.867 356.328 131.529C364.786 127.191 373.089 121.072 381.239 113.171C389.389 105.27 393.464 98.4533 393.464 92.7211C393.464 91.7916 393.387 91.017 393.234 90.3973C393.234 89.7776 393.387 89.3903 393.695 89.2354C394.617 88.7706 395.386 88.8481 396.001 89.4678C398 93.3408 399 96.3618 399 98.5307C399 104.883 396.924 110.615 392.772 115.727C385.545 124.558 377.395 131.529 368.322 136.642C359.25 141.754 346.794 146.092 330.956 149.655C315.271 153.218 302.2 155 291.744 155C281.287 155 272.368 154.07 264.987 152.211C257.76 150.352 251.455 146.634 246.073 141.057C240.691 135.48 238 128.663 238 120.607C238 112.396 239.922 105.502 243.766 99.925C247.765 94.1929 252.455 89.7776 257.837 86.6792C263.372 83.5807 269.985 81.0245 277.673 79.0105C289.053 75.912 301.739 73.9755 315.732 73.2009C305.737 61.7366 299.817 48.4907 297.971 33.4633C297.818 31.7591 297.741 30.1324 297.741 28.5832C297.741 23.006 299.048 17.8936 301.662 13.2459C304.43 8.44327 308.966 5.03497 315.271 3.02098C321.575 1.00699 326.266 0 329.341 0C332.416 0 334.646 0.232383 336.03 0.697145C337.568 1.00699 338.875 1.3943 339.951 1.85906C341.028 2.16891 342.104 2.71114 343.181 3.48576C344.257 4.10545 345.18 4.64767 345.948 5.11243C346.717 5.57721 347.64 6.35182 348.716 7.43628C349.793 8.36582 350.562 9.06297 351.023 9.52774C351.484 9.83758 352.33 10.6122 353.56 11.8516C354.79 12.936 355.559 13.5557 355.867 13.7106C358.173 16.4992 360.403 18.1259 362.556 18.5907Z" fill="#FF008A"/>
<path d="M479.35 19.2267C479.35 10.4731 474.768 6.09628 465.604 6.09628C457.682 6.09628 447.353 9.84783 434.616 17.3509C422.034 24.854 409.064 36.3432 395.706 51.8183C382.348 67.1372 373.028 83.2376 367.747 100.12C365.572 106.841 364.485 113.094 364.485 118.877C364.485 124.505 366.116 129.429 369.378 133.649C375.125 141.152 384.522 144.982 397.57 145.138C398.502 145.138 399.356 145.138 400.133 145.138C414.578 145.138 430.189 141.465 446.964 134.118C463.74 126.615 477.176 115.673 487.272 101.292C488.049 100.198 488.825 99.9633 489.602 100.589C490.534 101.214 491 101.761 491 102.23C491 102.699 490.845 103.09 490.534 103.402C479.04 119.19 464.905 131.07 448.129 139.042C431.354 147.014 415.122 151 399.434 151C382.969 151 370.543 146.311 362.155 136.932C356.718 130.835 354 122.863 354 113.016C354 96.4462 360.213 78.6263 372.639 59.5559C389.57 33.6077 410.074 15.6315 434.15 5.62733C443.469 1.87578 452.401 0 460.944 0C471.506 0 479.04 2.50103 483.544 7.50311C486.495 10.942 487.971 14.9281 487.971 19.4612C487.971 28.0585 483.467 36.8903 474.457 45.9565C465.448 55.0228 455.43 62.2914 444.401 67.7624C433.528 73.0771 424.053 76.1253 415.976 76.9068C412.714 77.2195 411.161 76.3597 411.316 74.3276C411.472 71.514 413.413 69.9508 417.141 69.6382C429.567 68.544 440.984 64.7924 451.391 58.3835C461.798 51.8183 469.798 43.1429 475.389 32.3571C478.03 28.1366 479.35 23.7598 479.35 19.2267Z" fill="#FF008A"/>
<path d="M140.358 88.0559V150H122V6H188.372C203.704 6 215.136 9.75418 222.668 17.2626C229.258 23.8324 232.553 32.9497 232.553 44.6145C232.553 52.7933 230.737 59.5642 227.106 64.9274C223.609 70.2905 217.759 74.9832 209.555 79.0056C216.145 81.5531 220.987 84.9721 224.08 89.2626C227.173 93.6871 228.922 102.737 229.325 116.413C229.594 126.469 230.199 133.24 231.141 136.726C232.217 140.078 234.503 142.961 238 145.374V150H215.809C212.85 143.832 211.37 137.33 211.37 130.492L211.572 107.966C211.572 106.492 210.967 104.212 209.757 101.128C208.546 98.0447 207.403 95.8324 206.327 94.4916C202.696 90.2011 196.509 88.0559 187.767 88.0559H140.358ZM140.358 71.7654H184.943C203.906 71.7654 213.388 63.5196 213.388 47.0279C213.388 30.5363 203.906 22.2905 184.943 22.2905H140.358V71.7654Z" fill="#FF008A"/>
<path d="M555.286 106.76H499.787L484.505 150H465L516.276 6H540.004L590.475 150H570.166L555.286 106.76ZM550.058 91.2737L527.939 25.9106L504.412 91.2737H550.058Z" fill="#FF008A"/>
<path d="M629.54 89.0615V150H611.242V6H670.762C685.91 6 697.305 10.1564 704.946 18.4693C711.649 25.7095 715 35.6313 715 48.2346C715 60.9721 710.911 71.095 702.734 78.6033C695.227 85.5754 685.91 89.0615 674.784 89.0615H629.54ZM629.54 72.771H667.947C676.66 72.771 683.497 70.5587 688.457 66.1341C693.417 61.7095 695.897 55.4749 695.897 47.4302C695.897 39.5196 693.417 33.352 688.457 28.9274C683.497 24.5028 676.66 22.2905 667.947 22.2905H629.54V72.771Z" fill="#FF008A"/>
<path d="M413.71 209.29V337H395.424V209.29H348V193H460.732V209.29H413.71Z" fill="#FF008A"/>
<path d="M490.595 193V337H471.907V193H490.595Z" fill="#FF008A"/>
<path d="M712.926 293.76H657.464L642.192 337H622.7L673.942 193H697.654L748.092 337H727.797L712.926 293.76ZM707.702 278.274L685.597 212.911L662.086 278.274H707.702Z" fill="#FF008A"/>
<path d="M773.065 193V320.71H844V337H754.779V193H773.065Z" fill="#FF008A"/>
<path d="M351 192.428C351 196.275 349.431 200.734 346.293 205.806C343.678 210.528 340.715 213.763 337.403 215.512C334.265 217.261 332.696 217.086 332.696 214.987C332.696 214.812 333.655 213.763 335.572 211.839C341.325 206.418 344.201 201.959 344.201 198.461C344.201 190.941 336.792 187.181 321.975 187.181C315.699 187.181 307.418 188.405 297.133 190.854C286.848 193.127 276.911 196.887 267.323 202.134C256.166 208.254 250.588 213.588 250.588 218.135C250.588 221.808 253.987 225.305 260.786 228.628C264.447 230.377 271.681 233.35 282.49 237.547C293.472 241.569 302.276 245.154 308.9 248.302C315.699 251.275 322.062 255.56 327.989 261.156C334.09 266.752 337.141 272.96 337.141 279.781C337.141 286.601 333.132 294.033 325.113 302.078C312.91 313.795 297.046 323.501 277.521 331.196C257.997 339.065 241.261 343 227.315 343C199.772 343 186 335.218 186 319.653C186 304.089 194.455 290.886 211.365 280.043C225.311 270.424 239.954 265.615 255.295 265.615C258.956 265.615 260.612 266.227 260.263 267.452C259.914 268.676 257.3 269.375 252.418 269.55C247.537 269.55 241.261 271.211 233.591 274.534C225.921 277.682 218.773 282.316 212.149 288.437C203.433 296.307 199.074 304.176 199.074 312.046C199.074 316.943 201.428 321.315 206.135 325.162C210.841 329.01 219.819 330.933 233.068 330.933C246.317 330.933 259.391 328.835 272.292 324.638C300.184 315.369 317.616 305.226 324.59 294.208C327.379 290.186 328.773 286.776 328.773 283.978C328.773 275.933 323.892 269.638 314.13 265.091C302.799 259.844 286.935 253.811 266.539 246.99C258.694 244.367 251.983 240.957 246.404 236.76C241 232.388 238.298 227.229 238.298 221.283C238.298 215.162 241.523 209.216 247.973 203.445C254.597 197.499 262.529 192.777 271.769 189.28C291.642 181.76 308.464 178 322.236 178C341.412 178 351 182.809 351 192.428Z" fill="#FF008A"/>
<path d="M537.827 343C525.369 343 519.14 336.947 519.14 324.842C519.14 316.449 524.746 297.081 535.958 266.737C549.108 231.228 556.514 208.632 558.175 198.947C543.918 198.947 531.321 201.449 520.386 206.453C509.589 211.295 504.191 218.235 504.191 227.274C504.191 229.695 504.744 231.874 505.852 233.811C506.959 235.747 508.067 237.119 509.174 237.926C511.389 239.54 513.88 241.154 516.649 242.768C518.31 244.221 518.587 245.109 517.479 245.432C517.064 245.432 516.579 245.351 516.026 245.189C512.842 244.382 509.382 242.042 505.644 238.168C501.907 234.295 499.969 229.856 499.83 224.853C499.277 223.239 499 221.786 499 220.495C499 212.747 502.045 206.211 508.136 200.884C514.365 195.558 521.286 192.168 528.899 190.716C536.651 189.102 542.88 188.295 547.586 188.295C552.292 188.295 555.96 188.375 558.59 188.537C558.452 187.407 558.037 186.197 557.344 184.905C556.652 183.614 557.068 182.726 558.59 182.242C558.729 182.242 558.936 182.242 559.213 182.242C560.597 182.242 561.912 183.453 563.158 185.874L564.196 189.263C572.086 190.554 578.661 192.572 583.921 195.316C585.998 196.284 587.659 197.979 588.905 200.4C590.15 202.66 589.735 203.709 587.659 203.547C586.413 203.547 584.129 202.902 580.807 201.611C577.485 200.158 572.017 199.27 564.404 198.947C563.712 215.249 559.905 232.6 552.984 251C539.696 287.154 533.052 311.607 533.052 324.358C533.052 332.589 535.889 336.705 541.565 336.705C548.486 336.705 558.313 331.056 571.048 319.758C586.136 306.684 600.67 287.154 614.651 261.168C616.45 257.779 619.842 251.323 624.825 241.8C634.376 223.4 642.404 209.519 648.91 200.158C653.063 194.186 657.7 189.667 662.821 186.6C668.081 183.533 672.165 182 675.072 182C677.979 182 680.193 182.484 681.716 183.453C683.239 184.26 684 185.067 684 185.874C684 186.519 683.654 186.842 682.962 186.842L680.678 186.6C676.11 186.6 669.673 192.491 661.368 204.274C656.108 211.698 648.772 222.754 639.359 237.442C630.085 252.13 623.371 262.621 619.219 268.916C601.501 294.902 586.205 313.786 573.332 325.568C560.459 337.189 548.624 343 537.827 343Z" fill="#FF008A"/>
<path d="M221.066 197.79C221.394 198.12 222.134 198.367 223.284 198.532C224.434 198.532 225.419 198.945 226.241 199.769C227.226 200.594 228.623 203.315 230.43 207.933C232.401 212.55 233.387 216.426 233.387 219.559C233.387 222.528 232.976 225.744 232.155 229.207C231.498 232.505 230.348 234.154 228.705 234.154C225.912 234.154 223.612 230.939 221.805 224.507C219.998 217.91 218.684 213.787 217.862 212.138C213.263 202.408 208.334 195.316 203.077 190.864C198.313 186.411 193.467 184.184 188.539 184.184C186.403 184.184 184.267 184.597 182.132 185.421C171.618 189.874 166.361 200.264 166.361 216.591C166.361 221.868 167.347 228.135 169.318 235.391C171.289 242.483 174.329 248.75 178.436 254.192C179.257 255.181 183.61 256.006 191.496 256.666C195.603 257.16 197.985 258.645 198.642 261.118C199.299 263.427 198.313 265.241 195.685 266.561C194.206 268.375 188.539 267.88 178.682 265.076C176.053 264.417 174.329 264.004 173.507 263.84C164.636 264.004 154.615 265.984 143.444 269.777C132.273 273.57 122.006 279.424 112.642 287.34C103.278 295.091 98.596 303.667 98.596 313.067C98.596 320.159 101.471 325.849 107.221 330.136C112.97 334.589 122.17 336.816 134.819 336.816C147.633 336.816 161.843 334.837 177.45 330.879C193.221 326.921 205.542 322.633 214.413 318.015C223.448 313.397 232.319 306.883 241.026 298.472C249.733 290.061 254.086 282.805 254.086 276.703C254.086 275.714 254.004 274.889 253.84 274.229C253.84 273.57 254.004 273.157 254.332 272.992C255.318 272.498 256.139 272.58 256.797 273.24C258.932 277.363 260 280.579 260 282.888C260 289.649 257.782 295.751 253.347 301.193C245.626 310.594 236.919 318.015 227.226 323.457C217.534 328.9 204.227 333.517 187.307 337.31C170.55 341.103 156.586 343 145.415 343C134.245 343 124.716 342.01 116.831 340.031C109.11 338.052 102.374 334.094 96.6246 328.157C90.8749 322.22 88 314.964 88 306.388C88 297.648 90.0535 290.309 94.1605 284.372C98.4317 278.27 103.442 273.57 109.192 270.271C115.106 266.973 122.17 264.252 130.384 262.108C142.541 258.81 156.094 256.748 171.043 255.924C160.365 243.72 154.04 229.619 152.069 213.622C151.904 211.808 151.822 210.076 151.822 208.427C151.822 202.49 153.219 197.048 156.011 192.1C158.968 186.988 163.815 183.36 170.55 181.216C177.286 179.072 182.296 178 185.582 178C188.867 178 191.249 178.247 192.728 178.742C194.371 179.072 195.767 179.484 196.917 179.979C198.067 180.309 199.217 180.886 200.367 181.711C201.517 182.37 202.502 182.948 203.324 183.442C204.145 183.937 205.131 184.762 206.281 185.916C207.431 186.906 208.252 187.648 208.745 188.142C209.238 188.472 210.141 189.297 211.456 190.616C212.77 191.771 213.591 192.43 213.92 192.595C216.384 195.564 218.766 197.295 221.066 197.79Z" fill="#FF008A"/>
<path d="M38.2 271.436V337H20V193H116V209.29H38.2V255.145H106.6V271.436H38.2Z" fill="#FF008A"/>
</svg>
